<svg width="231" height="272" viewBox="0 0 231 272" fill="none" xmlns="http://www.w3.org/2000/svg">
<path opacity="0.1" d="M87.092 271.547C134.973 271.547 173.788 232.732 173.788 184.851C173.788 136.97 134.973 98.155 87.092 98.155C39.2111 98.155 0.395996 136.97 0.395996 184.851C0.395996 232.732 39.2111 271.547 87.092 271.547Z" fill="url(#paint0_radial)"/>
<path d="M171.875 67.0408C176.585 56.5607 171.838 44.2154 161.271 39.4668C150.705 34.7183 138.321 39.3647 133.611 49.8449C128.902 60.3251 133.649 72.6704 144.215 77.4189C154.782 82.1674 167.166 77.521 171.875 67.0408Z" fill="#F9F3E5"/>
<path d="M185.084 83.0102C188.593 75.686 175.467 62.0958 155.765 52.6557C136.063 43.2156 117.247 41.5003 113.738 48.8246C110.228 56.1488 123.355 69.739 143.056 79.1791C162.758 88.6192 181.574 90.3345 185.084 83.0102Z" fill="#56CCC1"/>
<path d="M166.712 80.1235C168.317 76.7737 160.643 69.7576 149.572 64.4526C138.5 59.1477 128.224 57.5627 126.619 60.9126C125.014 64.2624 132.688 71.2785 143.759 76.5835C154.831 81.8885 165.107 83.4734 166.712 80.1235Z" fill="#003F40"/>
<path d="M135.77 71.3081C132.578 68.2871 128.93 63.8412 129.329 59.2812C127.961 59.5092 126.992 60.0792 126.536 60.8772C125.168 63.7272 130.583 69.3131 139.076 74.1581C137.993 73.3031 136.853 72.3341 135.77 71.3081Z" fill="#121212"/>
<path d="M161.021 71.3654C160.052 72.6763 158.798 73.8163 157.43 74.7853C157.658 75.2983 157.658 75.8113 157.487 76.3243C157.031 77.4643 156.518 78.4903 155.606 79.3453C155.093 79.8013 154.523 80.2002 153.953 80.5422C160.565 82.4232 165.638 82.4232 166.72 80.1432C167.689 78.0913 165.353 74.8423 161.021 71.3654Z" fill="#121212"/>
<path d="M155.777 52.6121C136.055 43.1502 117.245 41.4973 113.768 48.7932C113.369 49.5912 113.198 50.5032 113.198 51.4722C117.587 45.4302 135.314 47.4252 153.953 56.3741C172.649 65.323 185.416 77.9769 183.25 85.1588C184.048 84.5318 184.675 83.7908 185.074 82.9928C188.608 75.6399 175.499 62.017 155.777 52.6121Z" fill="#0A726A"/>
<path d="M162.169 80.1263C163.366 77.6281 157.087 72.1295 148.145 67.8447C139.202 63.5599 130.983 62.1116 129.786 64.6098C128.589 67.108 134.867 72.6067 143.81 76.8914C152.752 81.1762 160.972 82.6245 162.169 80.1263Z" fill="#0A6B64"/>
<path d="M159.304 78.4953C160.12 76.792 154.867 72.5773 147.572 69.0814C140.276 65.5856 133.7 64.1325 132.884 65.8358C132.067 67.5391 137.32 71.7539 144.616 75.2497C151.912 78.7455 158.488 80.1986 159.304 78.4953Z" fill="#A3E3E3"/>
<path d="M147.568 69.0849C142.553 66.691 137.822 65.209 135.143 65.095C135.542 66.862 139.874 70.0539 145.63 72.8469C151.501 75.6399 156.802 77.0078 158.284 76.0959C156.46 74.1009 152.47 71.4219 147.568 69.0849Z" fill="#FFBFB5"/>
<path d="M147.569 69.0851C144.434 67.6032 141.413 66.4632 138.962 65.7792C139.817 67.0902 142.667 69.0851 146.258 70.7951C150.02 72.6191 153.497 73.5311 154.979 73.3031C152.984 71.9351 150.419 70.4531 147.569 69.0851Z" fill="white"/>
<path d="M152.585 67.318C151.901 66.919 151.16 66.52 150.419 66.178C150.191 66.634 149.963 67.033 149.792 67.489C150.533 67.831 151.217 68.23 151.901 68.572C152.129 68.173 152.357 67.717 152.585 67.318Z" fill="#56CCC1"/>
<path d="M156.86 71.1373C157.031 70.8523 157.145 70.5673 157.316 70.2823C156.689 69.8263 156.005 69.3703 155.264 68.9143C155.036 69.3703 154.865 69.7693 154.637 70.2253C155.321 70.6813 156.005 71.1373 156.632 71.5363C156.746 71.4223 156.803 71.3083 156.86 71.1373Z" fill="#56CCC1"/>
<path d="M161.591 73.8162C161.078 73.3032 160.451 72.7332 159.824 72.1632C159.596 72.5622 159.425 72.9612 159.197 73.4172C159.767 73.9302 160.337 74.3862 160.793 74.8422C161.021 74.5002 161.306 74.1582 161.591 73.8162Z" fill="#56CCC1"/>
<path d="M146.999 66.1212C147.227 65.6652 147.398 65.2662 147.626 64.8102C146.885 64.4682 146.144 64.1832 145.46 63.8982C145.289 64.3542 145.118 64.8102 144.947 65.2662C145.574 65.5512 146.315 65.8362 146.999 66.1212Z" fill="#56CCC1"/>
<path d="M142.553 62.8151C141.812 62.5301 141.014 62.3021 140.33 62.1311C140.216 62.5871 140.102 63.0431 139.931 63.4991C140.615 63.7271 141.299 63.9551 142.04 64.1831C142.211 63.7271 142.382 63.2711 142.553 62.8151Z" fill="#56CCC1"/>
<path d="M137.081 62.1882C137.195 61.9032 137.252 61.6752 137.309 61.3902C136.511 61.2192 135.713 61.1052 134.972 61.0482C134.915 61.2762 134.858 61.5042 134.801 61.7892C134.744 62.0172 134.744 62.1882 134.687 62.4162C135.371 62.4732 136.055 62.5872 136.853 62.7582C136.967 62.5302 137.024 62.3592 137.081 62.1882Z" fill="#56CCC1"/>
<path d="M138.962 65.7791L66.3447 116.451L155.264 163.191L154.979 73.36C154.979 73.36 147.341 67.831 138.962 65.7791Z" fill="url(#paint1_linear)"/>
<path d="M112.856 52.6695C113.198 51.8715 113.939 51.2445 114.737 50.8455C115.535 50.4465 116.39 50.2185 117.245 50.0475C119.012 49.7625 120.779 49.7625 122.546 49.8765C126.08 50.1615 129.5 50.8455 132.92 51.7575C136.34 52.6125 139.646 53.7525 142.952 55.0065C146.258 56.2604 149.45 57.6284 152.642 59.1674C155.777 60.7064 158.912 62.3594 161.933 64.1264C163.472 64.9814 164.954 65.9503 166.436 66.8623C167.918 67.8313 169.343 68.8003 170.768 69.8833C173.561 71.9923 176.296 74.2153 178.747 76.7802C179.944 78.0912 181.027 79.4592 181.939 80.9982C182.395 81.7392 182.737 82.5942 182.908 83.4492C183.079 84.3041 183.079 85.2161 182.68 86.0141C183.022 85.2161 183.022 84.3041 182.794 83.4492C182.566 82.5942 182.224 81.7962 181.768 81.0552C180.856 79.5732 179.716 78.2622 178.519 77.0082C176.069 74.5002 173.333 72.3343 170.483 70.3393C164.783 66.2923 158.684 62.8724 152.357 59.8514C146.087 56.8304 139.532 54.2085 132.863 52.3275C129.5 51.3585 126.08 50.5605 122.66 50.2185C120.95 50.0475 119.183 49.9905 117.473 50.2185C116.618 50.3325 115.763 50.5605 114.965 50.9025C113.996 51.3015 113.255 51.8715 112.856 52.6695Z" fill="#075955"/>
<path d="M153.497 63.1151C153.748 62.5719 152.885 61.6399 151.57 61.0333C150.255 60.4267 148.986 60.3752 148.735 60.9184C148.485 61.4615 149.348 62.3936 150.663 63.0002C151.978 63.6068 153.247 63.6582 153.497 63.1151Z" fill="#F9F3E5"/>
<path d="M167.699 72.5343C168.053 72.0516 167.391 70.9672 166.223 70.1122C165.054 69.2573 163.82 68.9556 163.467 69.4383C163.114 69.921 163.775 71.0054 164.944 71.8604C166.113 72.7153 167.346 73.0171 167.699 72.5343Z" fill="#F9F3E5"/>
<path d="M136.539 56.54C136.683 55.9595 135.661 55.2062 134.256 54.8573C132.85 54.5085 131.594 54.6962 131.45 55.2767C131.306 55.8572 132.328 56.6106 133.734 56.9594C135.139 57.3082 136.395 57.1205 136.539 56.54Z" fill="#F9F3E5"/>
<path d="M124.132 57.0004C124.299 56.4261 123.307 55.6327 121.917 55.2282C120.526 54.8238 119.263 54.9615 119.096 55.5358C118.929 56.1101 119.921 56.9036 121.312 57.308C122.702 57.7124 123.965 57.5747 124.132 57.0004Z" fill="#F9F3E5"/>
<path d="M175.954 81.7513C176.229 81.2203 175.41 80.2496 174.124 79.5832C172.839 78.9168 171.573 78.8071 171.298 79.3381C171.023 79.8691 171.842 80.8398 173.128 81.5062C174.413 82.1726 175.679 82.2824 175.954 81.7513Z" fill="#F9F3E5"/>
<path d="M157.145 198.588C149.621 237.291 112.115 262.485 73.4125 254.961C71.2465 254.505 69.1375 253.992 67.0285 253.422C51.7527 248.976 38.9849 239.742 29.979 227.715C24.507 220.419 20.4601 212.097 18.0661 203.205C15.3871 193.116 14.8741 182.229 17.0401 171.286C18.2371 165.016 20.2891 159.031 23.025 153.559C36.8759 125.23 68.3965 108.586 100.772 114.913C107.099 116.167 113.027 118.219 118.556 120.898C133.604 128.251 145.289 140.62 152.072 155.44C158.057 168.436 160.109 183.426 157.145 198.588Z" fill="url(#paint2_linear)"/>
<path d="M153.097 179.037C151.843 184.794 147.227 189.696 141.527 191.292C140.159 191.634 138.734 191.862 137.651 192.717C135.827 194.142 135.599 196.707 135.485 198.987C135.371 201.096 135.314 203.262 135.827 205.314C136.112 206.511 136.625 207.708 136.853 208.962C137.48 212.895 134.858 216.543 132.35 219.678C131.894 220.305 131.381 220.932 130.64 221.16C129.443 221.616 128.018 220.761 127.334 219.678C126.65 218.538 126.479 217.227 126.194 215.916C124.598 209.076 119.354 203.775 114.395 198.816C113.198 197.619 111.83 196.365 110.12 196.194C108.524 196.08 106.757 196.935 105.389 196.137C103.964 195.225 104.135 193.23 103.964 191.52C103.622 187.416 100.544 183.882 100.259 179.721C99.8601 175.161 102.995 170.886 106.928 168.549C110.861 166.212 115.478 165.414 119.981 164.616L129.158 163.077C130.583 162.849 132.008 162.564 133.148 161.595C134.003 160.797 134.516 159.657 134.63 158.517C135.77 149.17 118.442 149.283 114.338 154.641C113.027 156.351 112.628 158.517 111.716 160.398C110.747 162.336 108.866 164.103 106.757 163.704C105.446 163.419 104.477 162.393 103.394 161.652C100.43 159.657 98.8911 162.792 96.0411 163.191C94.4451 163.419 92.8491 162.393 92.1082 160.911C91.3672 159.486 91.3672 157.776 91.7092 156.237C92.1082 154.641 92.8492 153.159 92.9062 151.563C92.9632 149.91 91.9942 148.087 90.3412 148.03C90.1702 149.169 89.4862 150.252 88.5742 150.879C87.4342 149.853 85.5532 150.366 84.4132 151.335C83.2163 152.304 82.3613 153.615 81.1073 154.527C79.8533 155.382 77.8583 155.553 77.0033 154.299C76.6613 153.729 76.5473 153.102 76.6043 152.475C76.8323 149.568 79.5113 147.517 81.2213 145.123C83.5013 141.817 84.2422 137.371 87.4912 134.977C90.5122 132.754 94.4451 133.267 97.9791 133.153C102.311 132.982 103.109 131.728 106.244 129.163C110.063 126.028 114.167 123.235 118.385 120.784C133.433 128.137 145.118 140.506 151.9 155.325C151.33 156.978 150.761 158.631 149.906 160.113C149.279 161.196 148.481 162.222 148.025 163.419C147.341 165.243 147.569 167.409 148.652 169.062C149.735 170.715 151.501 171.798 152.47 173.565C153.496 175.275 153.496 177.213 153.097 179.037Z" fill="url(#paint3_linear)"/>
<path d="M55.4006 149.853C55.6286 149.796 55.8566 149.796 56.1416 149.739C57.6806 149.568 59.2766 149.682 60.7586 150.024C61.7846 150.252 62.9245 150.765 63.1525 151.848C63.4375 153.159 62.0696 154.128 61.2146 155.211C59.4476 157.548 60.2456 160.968 58.9346 163.59C57.3386 166.782 53.7476 167.124 51.4107 169.404C49.3017 171.513 49.4157 174.648 47.9337 177.099C46.3947 179.721 44.4568 180.12 42.7468 177.783C40.6378 174.762 40.4098 172.482 41.9488 169.176C42.8608 167.181 43.6018 164.958 43.0318 162.792C42.4618 160.74 40.8088 159.087 40.1818 157.035C38.0158 149.91 45.7107 150.195 50.3277 150.537C52.0377 150.594 53.6906 150.138 55.4006 149.853Z" fill="url(#paint4_linear)"/>
<path d="M43.7728 211.413C42.5758 210.672 41.3218 209.931 40.0679 209.133C38.6429 208.278 37.1609 207.366 35.4509 206.967C32.5439 206.283 29.466 207.309 26.559 206.853C24.849 206.568 23.196 205.77 21.6001 204.972C20.4031 204.402 19.2061 203.775 18.0661 203.091C15.3871 193.002 14.8741 182.115 17.0401 171.171C18.2371 164.902 20.2891 158.917 23.025 153.445C23.823 153.103 24.678 152.818 25.476 152.533C27.756 151.735 30.492 150.253 32.9429 150.481C37.9019 151.051 34.8809 156.352 33.6839 159.202C32.9429 160.969 32.2019 162.85 32.4299 164.788C32.6579 166.669 33.8549 168.322 34.5389 170.088C36.1919 174.591 34.5389 180.12 37.3889 183.939C38.4719 185.421 40.0679 186.39 41.2648 187.758C42.4618 189.126 43.2028 191.178 42.2338 192.717C40.7519 190.779 37.9019 190.38 35.6219 191.235C33.3419 192.09 31.6319 194.028 30.378 196.08C29.523 197.448 28.839 199.329 29.865 200.583C30.264 201.039 30.777 201.324 31.29 201.609C35.9639 204.117 40.2389 207.48 43.7728 211.413Z" fill="url(#paint5_linear)"/>
<path d="M67.9403 229.653C67.2563 233.244 68.9093 236.892 68.5103 240.54C68.1113 244.188 65.7174 247.607 66.5154 251.198C66.6294 251.939 66.9713 252.623 67.0283 253.364C51.7525 248.918 38.9847 239.685 29.9788 227.658C29.9788 227.658 29.9788 227.658 29.9788 227.601C30.0358 225.492 30.8338 223.326 30.1498 221.331C29.5798 219.792 28.1548 218.538 28.1548 216.942C28.1548 215.118 30.0928 213.807 31.8597 213.75C33.6837 213.693 35.3937 214.434 37.0467 215.118C40.8656 216.657 44.9126 217.683 49.0166 218.196C49.9285 218.31 50.8975 218.367 51.8095 218.139C54.6025 217.455 55.9135 214.377 58.0794 212.439C60.6444 210.216 64.5774 209.76 67.5413 211.413C70.5053 213.066 72.2723 216.6 71.7593 219.963C71.1893 223.383 68.5673 226.233 67.9403 229.653Z" fill="url(#paint6_linear)"/>
<path opacity="0.28" d="M72.1581 206.796C71.9871 212.496 68.6812 216.999 64.7482 216.885C60.8723 216.771 57.8513 212.04 58.0223 206.34C58.1933 200.64 61.4993 196.137 65.4322 196.251C69.3082 196.422 72.3291 201.153 72.1581 206.796Z" fill="white"/>
<path d="M130.355 238.146C128.132 237.519 125.909 238.887 124.028 239.913C121.748 241.167 119.525 242.706 116.846 243.105C111.317 243.903 107.156 238.602 101.684 240.255C95.8131 242.079 92.0512 247.152 85.5532 247.665C83.1593 247.893 80.6513 247.551 78.2573 247.893C76.5473 248.178 74.9514 248.634 74.3244 250.344C73.6974 252.054 74.3814 254.049 75.6924 255.246C96.7251 258.665 117.188 252.51 132.578 239.856C132.122 239.115 131.438 238.488 130.355 238.146Z" fill="white"/>
<path d="M39.0986 139.366C40.6375 138.91 42.0055 137.77 43.6015 137.314C46.4515 136.516 49.4154 137.2 52.1514 137.998C55.4574 139.024 59.3903 140.905 62.1833 137.884C64.2923 135.661 63.6653 132.583 64.6343 129.904C65.4893 127.567 67.1992 126.142 69.6502 125.686C72.1012 125.23 74.7232 126.313 76.6611 124.204C77.4591 123.292 77.6871 121.924 78.5421 121.012C80.8221 118.447 84.128 118.618 87.263 118.333C90.626 117.991 92.849 116.224 94.5589 113.83C71.5882 111.436 49.6434 120.328 34.7666 136.459C35.0516 138.568 36.1916 140.164 39.0986 139.366Z" fill="white"/>
<path opacity="0.25" d="M152.071 155.382C145.288 140.563 133.604 128.194 118.556 120.841C114.794 118.96 110.804 117.478 106.643 116.281C117.473 123.691 126.023 133.894 131.381 145.693C137.309 158.745 139.361 173.736 136.454 188.898C128.93 227.601 91.4241 252.794 52.7215 245.27C50.7265 244.871 48.7886 244.415 46.8506 243.845C52.8925 248.006 59.6754 251.255 67.0284 253.421C69.1373 253.991 71.2463 254.561 73.4123 254.96C112.115 262.541 149.62 237.291 157.144 198.588C160.108 183.426 158.056 168.435 152.071 155.382Z" fill="url(#paint7_linear)"/>
<path opacity="0.25" d="M83.1024 233.586C80.9364 233.13 78.8274 232.617 76.7184 232.047C61.4426 227.601 48.6748 218.367 39.6689 206.34C34.1969 199.044 30.15 190.722 27.756 181.83C25.077 171.742 24.564 160.855 26.73 149.911C27.015 148.315 27.414 146.719 27.813 145.18C26.046 147.802 24.45 150.595 23.025 153.502C20.2891 158.974 18.2941 164.902 17.0401 171.229C14.8741 182.172 15.3871 193.059 18.0661 203.148C20.4031 212.04 24.45 220.362 29.979 227.658C38.9849 239.685 51.7527 248.919 67.0285 253.365C69.1375 253.935 71.2465 254.505 73.4125 254.904C110.462 262.143 146.429 239.343 156.005 203.433C140.444 226.518 112.115 239.286 83.1024 233.586Z" fill="url(#paint8_linear)"/>
<path opacity="0.28" d="M65.9368 175.132C70.4696 161.91 66.8051 148.675 57.752 145.572C48.6989 142.468 37.6854 150.671 33.1526 163.893C28.6198 177.116 32.2843 190.35 41.3374 193.454C50.3905 196.558 61.404 188.355 65.9368 175.132Z" fill="white"/>
<path d="M138.734 67.4325C137.765 68.4015 136.739 69.3705 135.656 70.2825C134.63 71.1944 133.547 72.0494 132.464 72.9044C131.381 73.7594 130.241 74.6144 129.101 75.4124C127.961 76.2104 126.821 77.0084 125.624 77.6924C126.593 76.7234 127.619 75.7544 128.702 74.8424C129.728 73.9304 130.811 73.0754 131.894 72.2204C132.977 71.3654 134.117 70.5105 135.257 69.7125C136.397 68.9145 137.537 68.1735 138.734 67.4325Z" fill="#F9F3E5"/>
<path d="M128.759 77.4072C128.36 77.9772 127.961 78.4902 127.505 79.0032C127.049 79.5162 126.593 79.9722 126.08 80.4282C125.567 80.8842 125.054 81.2832 124.541 81.7392C124.028 82.1382 123.458 82.5372 122.831 82.8222C123.23 82.2522 123.629 81.7392 124.085 81.2262C124.541 80.7132 124.997 80.2572 125.51 79.8012C126.023 79.3452 126.536 78.9462 127.049 78.4902C127.562 78.1482 128.132 77.7492 128.759 77.4072Z" fill="#F9F3E5"/>
<path d="M153.952 73.7023C153.895 78.0912 153.724 82.5372 153.553 86.9261C153.382 91.3151 153.097 95.704 152.812 100.15C152.527 104.539 152.185 108.928 151.843 113.317C151.501 117.706 151.045 122.095 150.532 126.484C150.589 122.095 150.76 117.649 150.931 113.26C151.102 108.871 151.387 104.482 151.672 100.036C151.957 95.647 152.299 91.2581 152.641 86.8691C152.983 82.4802 153.439 78.0912 153.952 73.7023Z" fill="#F9F3E5"/>
<g opacity="0.75">
<path d="M98.2066 0.458374C98.0356 1.25637 98.1496 2.05436 98.6056 2.73835C97.8646 2.62435 97.0666 2.85235 96.3826 3.36534C96.5536 2.56735 96.4396 1.76936 95.9836 1.08537C96.7246 1.14237 97.5226 0.971368 98.2066 0.458374Z" fill="#27ABA7"/>
<path d="M230.217 112.063C230.046 112.861 230.16 113.659 230.616 114.343C229.875 114.229 229.077 114.457 228.393 114.97C228.564 114.172 228.45 113.374 227.994 112.69C228.792 112.747 229.59 112.576 230.217 112.063Z" fill="#27ABA7"/>
<path d="M98.3778 65.8368C98.2068 66.6348 98.3208 67.4328 98.7768 68.1168C98.0358 68.0028 97.2378 68.2308 96.5538 68.7438C96.7248 67.9458 96.6108 67.1478 96.1548 66.4638C96.9528 66.5208 97.7508 66.2928 98.3778 65.8368Z" fill="#27ABA7"/>
<path d="M98.2636 65.8367C98.0926 66.5777 98.2066 67.3187 98.6056 67.9456C97.9216 67.8317 97.1807 68.0596 96.5537 68.5156C96.7247 67.7747 96.6107 67.0337 96.2117 66.4067C96.8957 66.5207 97.6366 66.2927 98.2636 65.8367Z" fill="white"/>
<path d="M173.104 36.9948C172.933 37.7357 173.047 38.4767 173.446 39.1037C172.762 38.9897 172.021 39.2177 171.394 39.6737C171.565 38.9327 171.451 38.1917 171.052 37.5647C171.736 37.6787 172.477 37.4507 173.104 36.9948Z" fill="white"/>
<path d="M217.108 68.5725C216.937 69.3135 217.051 70.0545 217.45 70.6815C216.766 70.5675 216.025 70.7955 215.398 71.2515C215.569 70.5105 215.455 69.7695 215.056 69.1425C215.74 69.1995 216.481 69.0285 217.108 68.5725Z" fill="white"/>
<path d="M170.368 120.955C170.197 121.696 170.311 122.437 170.71 123.064C170.026 122.95 169.285 123.178 168.658 123.634C168.829 122.893 168.715 122.152 168.316 121.525C169 121.582 169.741 121.411 170.368 120.955Z" fill="white"/>
<path d="M210.267 113.488C210.096 114.229 210.21 114.97 210.609 115.597C209.925 115.483 209.184 115.711 208.557 116.167C208.728 115.426 208.614 114.685 208.215 114.058C208.899 114.172 209.64 113.944 210.267 113.488Z" fill="white"/>
<path d="M171.451 0.230469C171.28 0.971461 171.394 1.71245 171.793 2.33945C171.109 2.22545 170.368 2.45344 169.741 2.90944C169.912 2.16845 169.798 1.42746 169.399 0.800462C170.14 0.914461 170.881 0.686464 171.451 0.230469Z" fill="white"/>
<path d="M199.723 78.6614C200.29 78.6614 200.749 78.202 200.749 77.6354C200.749 77.0687 200.29 76.6094 199.723 76.6094C199.156 76.6094 198.697 77.0687 198.697 77.6354C198.697 78.202 199.156 78.6614 199.723 78.6614Z" fill="#FD6F5C"/>
<path d="M89.1439 20.4654C89.7105 20.4654 90.1699 20.0061 90.1699 19.4394C90.1699 18.8728 89.7105 18.4135 89.1439 18.4135C88.5773 18.4135 88.1179 18.8728 88.1179 19.4394C88.1179 20.0061 88.5773 20.4654 89.1439 20.4654Z" fill="#FD6F5C"/>
<path d="M52.2655 62.0179C52.8321 62.0179 53.2915 61.5586 53.2915 60.9919C53.2915 60.4253 52.8321 59.9659 52.2655 59.9659C51.6989 59.9659 51.2395 60.4253 51.2395 60.9919C51.2395 61.5586 51.6989 62.0179 52.2655 62.0179Z" fill="#FD6F5C"/>
<path d="M97.2951 82.3663C97.6728 82.3663 97.9791 82.06 97.9791 81.6823C97.9791 81.3045 97.6728 80.9983 97.2951 80.9983C96.9173 80.9983 96.6111 81.3045 96.6111 81.6823C96.6111 82.06 96.9173 82.3663 97.2951 82.3663Z" fill="white"/>
</g>
<path d="M132.954 100.029L140.386 89.6726L146.908 87.8269L143.065 107.207L132.954 100.029Z" fill="url(#paint9_linear)"/>
<path d="M101.946 99.5787L116.138 86.2764L128.303 93.9508L119.686 111.858L101.946 99.5787Z" fill="url(#paint10_linear)"/>
<path d="M144.353 83.8832C144.198 83.8328 143.99 83.7321 143.834 83.6314C143.678 83.5306 143.523 83.3796 143.471 83.1781C143.419 83.0774 143.419 82.9766 143.419 82.8759C143.419 82.4226 143.782 81.919 144.198 81.7679C144.405 81.6671 144.665 81.5664 144.924 81.5664C145.184 81.5664 145.443 81.6168 145.599 81.7679C145.755 81.919 145.859 82.1708 145.911 82.3722C145.963 82.473 146.014 82.6241 146.014 82.7248C146.482 82.3723 147.001 81.9693 147.208 81.4153C147.26 81.2139 147.312 80.962 147.416 80.7606C147.624 80.1058 148.298 79.6022 148.298 78.8971C148.298 78.7963 148.298 78.6956 148.298 78.6452C148.402 78.4941 148.61 78.4941 148.766 78.5949C148.921 78.6956 149.077 78.7963 149.233 78.8467C149.181 79.1489 148.921 79.3503 148.766 79.6022C148.61 79.854 148.61 80.1562 148.558 80.4584C148.454 81.0124 148.247 81.516 147.883 81.9693C147.779 82.1204 147.624 82.2715 147.572 82.4226C147.468 82.5737 147.468 82.7752 147.572 82.9263C147.312 83.2285 147.105 83.581 146.897 83.8328C146.793 84.7898 146.637 85.7467 146.585 86.7037C146.585 86.9051 146.534 87.1569 146.637 87.3584C146.689 87.5599 146.845 87.7613 147.105 87.7613C147.053 88.0132 146.741 88.1139 146.534 88.2146C146.17 88.4161 145.911 88.819 145.911 89.2723C145.859 90.5818 145.34 91.7905 144.769 92.9489C144.249 92.9993 143.678 93.0497 143.159 92.9993C143.056 92.9993 143.004 92.9993 142.9 93.0497C142.848 93.1 142.848 93.1 142.796 93.1504C142.536 93.5533 142.277 94.0066 141.965 94.4095C141.81 94.611 141.706 94.8125 141.602 95.0643C141.343 95.6687 141.394 96.3234 141.446 96.9278C141.291 96.9782 141.135 96.8774 141.083 96.7767C141.031 96.8774 141.031 97.0285 140.979 97.1292C140.823 97.1292 140.668 97.0285 140.564 96.8774C140.408 96.7263 140.304 96.5249 140.252 96.3234C140.2 96.122 140.149 95.9709 140.149 95.7694C140.097 95.3665 140.045 95.0139 139.993 94.611C139.993 94.5606 139.993 94.5103 139.993 94.4599C140.045 94.3592 140.149 94.3592 140.252 94.3592C140.616 94.3088 140.875 94.1073 141.083 93.8555C141.291 93.6037 141.394 93.2511 141.498 92.9489C140.823 92.8986 140.2 92.8986 139.526 92.9993C139.266 93.0497 139.058 93.1 138.799 93.2008C138.591 93.3015 138.384 93.503 138.332 93.7548C138.332 93.8051 138.28 93.8555 138.228 93.8555H138.176C138.072 93.8051 138.02 93.6037 138.072 93.503C137.968 93.503 137.865 93.503 137.761 93.4526C137.657 93.4022 137.605 93.3015 137.605 93.2008C137.605 93.1504 137.657 93.1 137.709 93.0497C138.124 92.546 138.591 92.0424 139.11 91.6394C139.266 91.5387 139.422 91.3876 139.629 91.3373C139.785 91.2869 139.993 91.3876 139.993 91.5387C139.993 91.6394 139.941 91.6898 139.941 91.7905C139.889 91.8913 139.993 92.0424 140.097 92.0927C140.2 92.1431 140.356 92.1935 140.46 92.1935C140.927 92.1935 141.446 92.0927 141.862 91.9416C142.225 91.7905 142.329 91.3876 142.536 91.1358C142.744 90.884 143.107 90.7329 143.159 90.4307C143.211 90.2796 143.159 90.1789 143.107 90.0278C143.056 89.7256 143.107 89.4234 143.211 89.1212C142.952 89.1212 142.692 89.0708 142.433 89.0708C142.329 89.0708 142.225 89.0708 142.121 89.0708C142.017 89.1212 141.914 89.1716 141.81 89.2219C141.654 89.3226 141.498 89.4234 141.291 89.4737C141.135 89.5745 140.927 89.6752 140.771 89.6752C140.564 89.7256 140.356 89.7256 140.2 89.5745C140.2 89.5241 140.2 89.4737 140.2 89.4234C140.564 88.9701 141.239 88.9197 141.498 88.4664C141.602 88.3153 141.602 88.1139 141.706 87.9124C141.81 87.6606 142.017 87.4591 142.225 87.2577C142.848 86.6029 143.315 85.7467 143.263 84.8401C143.263 84.6387 143.211 84.4372 143.315 84.2861C143.678 84.0343 144.042 83.9839 144.353 83.8832Z" fill="#003F40"/>
<path d="M124.554 89.7688C124.706 89.6164 124.655 89.3624 124.655 89.1084C124.706 88.8036 124.859 88.5496 125.113 88.3972C125.367 88.2448 125.672 88.1432 125.926 88.0924C125.926 87.9908 126.079 87.94 126.18 87.94C126.282 87.94 126.384 87.9908 126.485 88.0416C126.638 88.1432 126.74 88.2448 126.79 88.3972C126.841 88.448 126.841 88.5496 126.74 88.5496C126.892 88.6004 126.994 88.8036 126.994 88.956C127.045 89.3116 126.994 89.718 126.79 90.0228C126.638 90.2768 126.384 90.48 126.13 90.6324C126.231 90.6832 126.333 90.8356 126.435 90.8864C126.333 91.0896 126.282 91.242 126.18 91.4452C126.333 91.8008 126.638 92.1564 126.943 92.3596C127.146 92.512 127.35 92.6136 127.502 92.766C127.553 92.8676 127.604 92.9184 127.705 93.02C127.858 93.2232 128.163 93.274 128.417 93.1724C128.417 93.2232 128.417 93.2232 128.366 93.274C128.468 93.3756 128.62 93.274 128.722 93.2232C128.824 93.1724 128.925 93.0708 129.078 93.1216C128.824 93.3248 128.62 93.4772 128.366 93.6804C128.264 93.7312 128.163 93.8328 128.061 93.8328C127.756 93.8836 127.502 93.6296 127.248 93.528C127.045 93.4264 126.79 93.4264 126.587 93.274C126.485 93.1724 126.435 93.0708 126.282 92.9692C126.18 92.9184 126.028 92.9184 125.926 93.02C125.113 94.4424 124.35 95.2044 123.486 96.1696C123.08 96.6268 122.927 97.2364 122.673 97.7444C122.317 98.3032 121.809 98.7604 121.3 99.1668C120.995 99.4208 120.589 99.6748 120.284 99.9288C120.03 100.132 119.826 100.437 119.572 100.691C119.318 100.996 119.013 101.25 118.759 101.504C118.098 102.113 117.437 102.774 116.776 103.383C116.675 103.485 116.522 103.536 116.471 103.434C116.471 103.688 116.217 103.891 116.116 104.145C115.811 104.552 115.556 105.009 115.353 105.466C115.302 105.517 115.302 105.568 115.251 105.618C115.201 105.669 115.099 105.669 115.048 105.618C114.997 105.618 114.997 105.568 114.997 105.517C114.743 104.958 114.845 104.247 115.201 103.79C115.302 103.688 115.353 103.586 115.404 103.485C115.455 103.383 115.404 103.231 115.302 103.129C114.997 103.383 114.896 103.739 114.743 104.094C114.591 104.45 114.336 104.755 113.93 104.856C113.828 104.856 113.726 104.856 113.676 104.806C113.574 104.755 113.574 104.602 113.574 104.501C113.574 104.348 113.574 104.145 113.625 103.993C113.676 103.79 113.676 103.637 113.777 103.485C114.031 103.028 114.54 102.774 114.845 102.316C114.743 102.062 114.641 101.758 114.54 101.504C115.201 100.843 115.912 100.183 116.573 99.5224C116.827 99.2684 117.081 99.0652 117.386 99.0144C117.844 98.2524 118.251 97.3888 118.606 96.5252C118.759 96.1188 118.962 95.6616 119.216 95.306C119.521 94.9504 119.877 94.7472 120.131 94.3916C120.233 94.2392 120.335 94.0868 120.538 94.0868C121.3 93.4772 121.809 92.6136 122.215 91.6992C122.419 91.242 122.571 90.7848 122.47 90.3276C122.368 90.0228 121.961 89.8704 121.656 89.718C120.894 89.3624 120.182 89.0068 119.521 88.5496C118.861 88.0924 118.251 87.5844 117.539 87.3304C117.539 87.2796 117.539 87.2288 117.59 87.178C117.336 87.178 117.031 87.1272 116.827 86.9748C116.726 86.924 116.675 86.8224 116.624 86.7208C116.522 86.5684 116.471 86.4668 116.37 86.3144C116.471 86.2636 116.573 86.3144 116.624 86.416C116.471 86.162 116.37 85.908 116.217 85.7048C116.166 85.654 116.166 85.5524 116.217 85.5524C116.268 85.5016 116.319 85.6032 116.37 85.654C116.37 85.6032 116.319 85.5524 116.37 85.5016C116.624 85.6032 116.827 85.8064 117.031 86.0096C117.081 85.9588 117.031 85.908 117.031 85.8572C116.98 85.7556 116.98 85.6032 117.031 85.5016C117.081 85.5016 117.081 85.5524 117.132 85.6032C117.183 85.7048 117.234 85.8064 117.285 85.908C117.437 86.162 117.539 86.416 117.59 86.67C118.454 87.0256 119.267 87.3812 120.182 87.686C120.487 87.7876 120.843 87.8892 121.097 88.0924C121.3 88.194 121.453 88.3464 121.605 88.448C122.114 88.8036 122.724 89.0068 123.385 89.1084C123.588 89.1592 123.842 89.1592 124.045 89.2608C124.198 89.4132 124.452 89.5656 124.554 89.7688Z" fill="#003F40"/>
<defs>
<radialGradient id="paint0_radial" cx="0" cy="0" r="1" gradientUnits="userSpaceOnUse" gradientTransform="translate(87.1164 184.837) rotate(0.0317899) scale(86.6951)">
<stop offset="0.0222222" stop-color="#FF3B9C"/>
<stop offset="0.4741" stop-color="#FF3B9C"/>
<stop offset="0.837" stop-color="#FF3E9C" stop-opacity="0.5"/>
<stop offset="1" stop-color="#FF7F9A" stop-opacity="0"/>
</radialGradient>
<linearGradient id="paint1_linear" x1="144.179" y1="71.66" x2="110.701" y2="140.011" gradientUnits="userSpaceOnUse">
<stop stop-color="#FD6F5B"/>
<stop offset="0.9426" stop-color="#FD6F5B" stop-opacity="0"/>
</linearGradient>
<linearGradient id="paint2_linear" x1="10.7952" y1="133.842" x2="171.794" y2="241.538" gradientUnits="userSpaceOnUse">
<stop offset="0.1285" stop-color="#4CD967"/>
<stop offset="0.897" stop-color="#0052BB"/>
</linearGradient>
<linearGradient id="paint3_linear" x1="48.4615" y1="134.429" x2="187.785" y2="202.056" gradientUnits="userSpaceOnUse">
<stop stop-color="#59A663"/>
<stop offset="0.8868" stop-color="#004AB7"/>
</linearGradient>
<linearGradient id="paint4_linear" x1="18.626" y1="142.891" x2="106.646" y2="198.791" gradientUnits="userSpaceOnUse">
<stop stop-color="#59D363"/>
<stop offset="0.8432" stop-color="#0457B8"/>
</linearGradient>
<linearGradient id="paint5_linear" x1="-0.869377" y1="159.763" x2="111.313" y2="231.008" gradientUnits="userSpaceOnUse">
<stop stop-color="#59C363"/>
<stop offset="1" stop-color="#0052BB"/>
</linearGradient>
<linearGradient id="paint6_linear" x1="-14.9048" y1="181.862" x2="97.2784" y2="253.107" gradientUnits="userSpaceOnUse">
<stop offset="0.2398" stop-color="#598B63"/>
<stop offset="0.8847" stop-color="#0052BB"/>
</linearGradient>
<linearGradient id="paint7_linear" x1="57.8068" y1="165.282" x2="163.008" y2="235.653" gradientUnits="userSpaceOnUse">
<stop offset="0.1285" stop-color="#4CD967"/>
<stop offset="0.897" stop-color="#0052BB"/>
</linearGradient>
<linearGradient id="paint8_linear" x1="-2.66839" y1="153.996" x2="158.313" y2="261.679" gradientUnits="userSpaceOnUse">
<stop offset="0.1285" stop-color="#4CD967"/>
<stop offset="0.897" stop-color="#0052BB"/>
</linearGradient>
<linearGradient id="paint9_linear" x1="143.567" y1="90.6444" x2="139.003" y2="101.006" gradientUnits="userSpaceOnUse">
<stop stop-color="#FD6F5B"/>
<stop offset="0.9426" stop-color="#FD6F5B" stop-opacity="0"/>
</linearGradient>
<linearGradient id="paint10_linear" x1="122.281" y1="89.156" x2="112.974" y2="102.356" gradientUnits="userSpaceOnUse">
<stop stop-color="#FD6F5B"/>
<stop offset="0.9426" stop-color="#FD6F5B" stop-opacity="0"/>
</linearGradient>
</defs>
</svg>
